<!-- icon666.com - MILLIONS vector ICONS FREE --><svg id="Warstwa_1" enable-background="new 0 0 512 512" viewBox="0 0 512 512" xmlns="http://www.w3.org/2000/svg" xmlns:xlink="http://www.w3.org/1999/xlink"><clipPath id="SVGID_00000033332636496666568160000014226462178625094571_"><path id="SVGID_00000085948402149746160730000005691079098309946800_" d="m256 368c-13.255 0-24-10.745-24-24v-40h48v40c0 13.255-10.745 24-24 24z" fill="#000000"></path></clipPath><clipPath id="SVGID_00000044877302090987557620000004018810477169503658_"><path id="SVGID_00000125572242057101637730000001806998731308156308_" d="m336 232c0 44.187-35.813 80-80 80s-80-35.813-80-80c0-14.575 0-65.425 0-80 0-44.188 35.813-80 80-80s80 35.812 80 80z" fill="#000000"></path></clipPath><g id="tlo"><path d="m432 272c0 34.77-10.08 67.18-27.48 94.47-31.24 49.02-86.09 81.53-148.52 81.53-19.58 0-38.41-3.2-56-9.1-38.51-12.91-71.08-38.78-92.52-72.43-17.4-27.29-27.48-59.7-27.48-94.47 0-97.2 78.8-176 176-176s176 78.8 176 176z" fill="#00a9f2"></path><circle cx="256" cy="256" fill="#64ddff" r="144"></circle></g><g id="cialo"><path d="m404.52 366.47c-25.17 39.49-65.66 68.27-113.09 77.96-11.44 2.34-23.29 3.57-35.43 3.57s-23.99-1.23-35.43-3.57c-47.43-9.69-87.92-38.47-113.09-77.96l8.81-16.52c4.06-7.62 10.04-13.88 17.19-18.27 5.76-3.56 12.3-5.9 19.21-6.77l22.7-2.84 32.61-4.07 48-6 48 6 32.61 4.07 22.7 2.84c6.91.87 13.45 3.21 19.21 6.77 7.15 4.39 13.13 10.65 17.19 18.27z" fill="#00cc71" style="fill: rgb(36, 243, 201);"></path><path d="m256 312-103.31 12.91c-6.91.87-13.45 3.21-19.21 6.77-7.15 4.39-13.13 10.65-17.19 18.27l-8.81 16.52c21.52 33.77 54.24 59.7 92.92 72.56v-47.03c0-17.775 5.81-34.183 15.614-47.461.289 21.84 18.077 39.461 39.986 39.461 22.09 0 40-17.91 40-40v-27z" fill="#00a167" style="fill: rgb(36, 243, 201);"></path><path d="m304 318-48 130c12.14 0 23.99-1.23 35.43-3.57l42.59-115.35 2.59-7.01z" fill="#006a54"></path><path d="m208 318-32.61 4.07 2.59 7.01 42.59 115.35c11.44 2.34 23.29 3.57 35.43 3.57z" fill="#006a54"></path><path d="m304 318-48 130-48-130 48-6z" fill="#fff"></path></g><g id="glowa"><g id="glowa_00000106866982545518840900000009294928245164945854_"><g><g><path id="SVGID_1_" d="m256 368c-13.255 0-24-10.745-24-24v-40h48v40c0 13.255-10.745 24-24 24z" fill="#df9379"></path></g><g><circle clip-path="url(#SVGID_00000033332636496666568160000014226462178625094571_)" cx="248" cy="264" fill="#cf6b5d" r="64"></circle></g></g><g><path d="m336 216c-8.837 0-16-7.163-16-16v-16c0-8.837 7.163-16 16-16 8.837 0 16 7.163 16 16v16c0 8.837-7.163 16-16 16z" fill="#df9379"></path><path d="m336 208c-4.418 0-8-3.582-8-8v-16c0-4.418 3.582-8 8-8 4.418 0 8 3.582 8 8v16c0 4.418-3.582 8-8 8z" fill="#cf6b5d"></path></g><g><path d="m176 216c-8.837 0-16-7.163-16-16v-16c0-8.837 7.163-16 16-16 8.837 0 16 7.163 16 16v16c0 8.837-7.163 16-16 16z" fill="#df9379"></path><path d="m176 208c-4.418 0-8-3.582-8-8v-16c0-4.418 3.582-8 8-8 4.418 0 8 3.582 8 8v16c0 4.418-3.582 8-8 8z" fill="#cf6b5d"></path></g><g><g><path id="XMLID_00000150822994048461335120000007516859324841023127_" d="m336 232c0 44.187-35.813 80-80 80s-80-35.813-80-80c0-14.575 0-65.425 0-80 0-44.188 35.813-80 80-80s80 35.812 80 80z" fill="#df9379"></path></g><g><path clip-path="url(#SVGID_00000044877302090987557620000004018810477169503658_)" d="m360 232c0 44.187-35.813 80-80 80s-80-35.813-80-80c0-14.575 0-65.425 0-80 0-44.188 35.813-80 80-80s80 35.812 80 80z" fill="#eebd99"></path></g></g><path id="nos_00000070836769688300752990000005277815203283892133_" d="m248 220c0-2.209 1.791-4 4-4h8c2.209 0 4 1.791 4 4 0 2.209-1.791 4-4 4h-8c-2.209 0-4-1.791-4-4z" fill="#df9379"></path></g><g id="oczy_00000178185429084564526010000003612093210819843514_"><g id="oko_x5F_lewe_00000046298944629150452850000016813853449332332960_"><path d="m224 216c-4.418 0-8-3.582-8-8v-16c0-4.418 3.582-8 8-8 4.418 0 8 3.582 8 8v16c0 4.418-3.582 8-8 8z" fill="#283033"></path><circle cx="228" cy="196" fill="#fff" r="4"></circle></g><g id="oko_x5F_prawe_00000106128304054641358350000002556002206621387923_"><path d="m288 216c-4.418 0-8-3.582-8-8v-16c0-4.418 3.582-8 8-8 4.418 0 8 3.582 8 8v16c0 4.418-3.582 8-8 8z" fill="#283033"></path><circle cx="292" cy="196" fill="#fff" r="4"></circle></g></g><g id="brwi" fill="#283033"><path id="brew_x5F_lewa" d="m240 160v8c0 4.418-3.582 8-8 8h-24v-8c0-4.418 3.582-8 8-8z" fill="#283033"></path><path id="brew_x5F_prawa" d="m304 168v8h-24c-4.418 0-8-3.582-8-8v-8h24c4.418 0 8 3.582 8 8z" fill="#283033"></path></g><path d="m264 264h-16c-8.837 0-16-7.163-16-16h48c0 8.837-7.163 16-16 16z" fill="#fff"></path></g><g id="broda"><path d="m324.68 196.68c-2.89 2.9-4.68 6.9-4.68 11.32v24c0 8.837-7.163 16-16 16 0-13.25-10.75-24-24-24h-48c-13.25 0-24 10.75-24 24-8.837 0-16-7.163-16-16v-24c0-4.42-1.79-8.42-4.68-11.32-2.9-2.89-6.9-4.68-11.32-4.68v56c0 35.346 28.654 64 64 64h32c35.346 0 64-28.654 64-64v-56c-4.42 0-8.42 1.79-11.32 4.68zm-52.69 73.94c-2.5.9-5.19 1.38-7.99 1.38h-16c-2.8 0-5.5-.48-8-1.38-9.32-3.29-16-12.18-16-22.62 0-2.21.9-4.21 2.34-5.66 1.45-1.44 3.45-2.34 5.66-2.34h48c4.42 0 8 3.58 8 8 0 10.44-6.68 19.33-16 22.62z" fill="#3c454c"></path><path d="m200 248v-2.14c-1.22-.7-2.33-1.56-3.32-2.54-2.89-2.9-4.68-6.9-4.68-11.32v-24c0-4.42-1.79-8.42-4.68-11.32-2.9-2.89-6.9-4.68-11.32-4.68v56c0 35.35 28.65 64 64 64h24c-35.35 0-64-28.65-64-64z" fill="#283033"></path></g><g id="wlosy"><path d="m336 140.09h-.09c.06 1.3.09 2.6.09 3.91v48c-2.21 0-4.21-.9-5.66-2.34-1.44-1.45-2.34-3.45-2.34-5.66v-16c0-9.9-2-19.33-5.61-27.91-1.15-2.74-2.47-5.39-3.94-7.94-9.04-15.72-29.48-19.88-44.47-9.68-5.13 3.49-11.32 5.53-17.98 5.53s-12.85-2.04-17.98-5.53c-14.99-10.2-35.43-6.04-44.47 9.68-1.47 2.55-2.79 5.2-3.94 7.94-3.61 8.58-5.61 18.01-5.61 27.91v16c0 4.42-3.58 8-8 8v-48c0-1.31.03-2.61.09-3.91h-.09v-28.09c0-26.51 21.49-48 48-48h64c26.51 0 48 21.49 48 48z" fill="#3c454c"></path><path d="m248 64c-26.51 0-48 21.49-48 48v12.31c-2.5 2.16-4.69 4.78-6.45 7.84-1.47 2.55-2.79 5.2-3.94 7.94-3.61 8.58-5.61 18.01-5.61 27.91v16c0 4.42-3.58 8-8 8v-48c0-1.31.03-2.61.09-3.91h-.09v-28.09c0-26.51 21.49-48 48-48z" fill="#283033"></path></g><path id="okulary" d="m312 168h-32c-8.84 0-16 7.16-16 16v2.15c-2.35-1.37-5.09-2.15-8-2.15s-5.65.78-8 2.15v-2.15c0-8.84-7.16-16-16-16h-32c-8.84 0-16 7.16-16 16v32c0 8.84 7.16 16 16 16h32c8.84 0 16-7.16 16-16v-16c0-4.41 3.59-8 8-8s8 3.59 8 8v16c0 8.84 7.16 16 16 16h32c8.84 0 16-7.16 16-16v-32c0-8.84-7.16-16-16-16zm-72 48c0 4.41-3.59 8-8 8h-32c-4.41 0-8-3.59-8-8v-32c0-4.41 3.59-8 8-8h32c4.41 0 8 3.59 8 8zm40 8c-4.41 0-8-3.59-8-8v-32c0-4.41 3.59-8 8-8h32c4.41 0 8 3.59 8 8v32c0 4.41-3.59 8-8 8z" fill="#fff"></path></svg>