<!-- icon666.com - MILLIONS vector ICONS FREE --><svg id="Layer_2" enable-background="new 0 0 512 512" viewBox="0 0 512 512" xmlns="http://www.w3.org/2000/svg"><g><g><path d="m312.5 502h-295c-4.142 0-7.5-3.358-7.5-7.5v-205c0-4.142 3.358-7.5 7.5-7.5h295c4.142 0 7.5 3.358 7.5 7.5v205c0 4.142-3.358 7.5-7.5 7.5z" fill="#46bee8"></path><path d="m40 312h62v46h-62z" fill="#ffe352"></path><g fill="#80d6fb"><circle cx="97.5" cy="392" r="10"></circle><circle cx="142.5" cy="392" r="10"></circle><circle cx="187.5" cy="392" r="10"></circle><circle cx="232.5" cy="392" r="10"></circle></g><g fill="#80d6fb"><path d="m40 456h118v10h-118z"></path><path d="m40 428h118v10h-118z"></path></g><g><circle cx="234.474" cy="447" fill="#ffe352" r="25"></circle><circle cx="265" cy="447" fill="#ffb236" r="25"></circle></g></g><path d="m421.87 271.187-29.87-28.932-29.87 28.932 9.74 10.056 13.13-12.718v116.475h-53v14h67v-130.475l13.13 12.718z" fill="#d3d3d3"></path><path d="m270 127v-14h-157v130.1l-13.05-13.05-9.9 9.9 29.95 29.949 29.95-29.949-9.9-9.9-13.05 13.05v-116.1z" fill="#d3d3d3"></path><g><circle cx="392" cy="120" fill="#ffe352" r="110"></circle><circle cx="392" cy="120" fill="#ffb236" r="99"></circle><circle cx="392" cy="120" fill="#ffe352" r="88"></circle><path d="m392 111c-9.19 0-16.667-7.477-16.667-16.667 0-9.189 7.477-16.666 16.667-16.666s16.667 7.477 16.667 16.666h18c0-16.002-10.902-29.5-25.667-33.474v-15.659h-18v15.659c-14.765 3.974-25.667 17.472-25.667 33.474 0 19.115 15.552 34.667 34.667 34.667 9.19 0 16.667 7.477 16.667 16.667 0 9.189-7.477 16.666-16.667 16.666s-16.667-7.477-16.667-16.666h-18c0 16.002 10.902 29.5 25.667 33.474v15.659h18v-15.659c14.765-3.974 25.667-17.472 25.667-33.474 0-19.115-15.552-34.667-34.667-34.667z" fill="#6e83b7"></path></g></g></svg>