<!-- icon666.com - MILLIONS vector ICONS FREE --><svg id="Capa_1" enable-background="new 0 0 512 512" viewBox="0 0 512 512" xmlns="http://www.w3.org/2000/svg"><g><g><path d="m421 121v270h-421v-270l30-30h361z" fill="#d5e8fe"></path><path d="m421 121v270h-210v-300h180z" fill="#b5dbff"></path><path d="m0 0h421v121h-421z" fill="#678d98"></path><path d="m211 0h210v121h-210z" fill="#4a696f"></path><path d="m61 46h120v30h-120z" fill="#4a696f"></path><g fill="#64e1dc"><path d="m301 46h30v30h-30z"></path><path d="m241 46h30v30h-30z"></path></g></g><path d="m151 211v301h361v-301z" fill="#678d98"></path><g fill="#4a696f"><path d="m331 211h181v301h-181z"></path><path d="m211 301h240v30h-240z"></path><path d="m211 391h240v30h-240z"></path></g><path d="m331 301h120v30h-120z" fill="#384949"></path><path d="m331 391h120v30h-120z" fill="#384949"></path><path d="m286 271c-24.901 0-45 20.099-45 45s20.099 45 45 45 45-20.099 45-45-20.099-45-45-45z" fill="#83ede6"></path><path d="m331 316c0 24.901-20.099 45-45 45v-90c24.901 0 45 20.099 45 45z" fill="#64e1dc"></path><path d="m376 361c-24.901 0-45 20.099-45 45s20.099 45 45 45 45-20.099 45-45-20.099-45-45-45z" fill="#83ede6"></path><path d="m421 406c0 24.901-20.099 45-45 45v-90c24.901 0 45 20.099 45 45z" fill="#64e1dc"></path></g></svg>